<svg width="26" height="22" viewBox="0 0 26 22" fill="none" xmlns="http://www.w3.org/2000/svg">
<path d="M1.03701 10.0538C0.991403 9.86944 0.9879 9.67703 1.02676 9.49114C1.06563 9.30525 1.14583 9.13078 1.26129 8.98098C1.37674 8.83119 1.5244 8.71002 1.69305 8.62667C1.8617 8.54333 2.04689 8.5 2.23455 8.5H23.7658C23.9533 8.50005 24.1383 8.54336 24.3069 8.62663C24.4754 8.70991 24.623 8.83096 24.7384 8.9806C24.8538 9.13024 24.9341 9.30454 24.9731 9.49027C25.012 9.676 25.0087 9.86827 24.9633 10.0525L22.7275 19.1063C22.5939 19.6471 22.2857 20.1272 21.8517 20.4704C21.4178 20.8135 20.883 20.9999 20.3324 21H5.66794C5.11733 20.9999 4.58254 20.8135 4.14857 20.4704C3.71461 20.1272 3.40637 19.6471 3.27284 19.1063L1.03701 10.0538Z" stroke="white" stroke-width="2" stroke-linejoin="round"/>
<path d="M9.29641 13.5V16M16.7039 13.5V16M5.59265 8.5L10.531 1M20.4077 8.5L15.4693 1" stroke="white" stroke-width="2" stroke-linecap="round"/>
</svg>
