<svg width="24" height="22" viewBox="0 0 24 22" fill="none" xmlns="http://www.w3.org/2000/svg">
<path d="M18.3964 15.3822C17.0857 16.6933 15.423 18.2552 13.4064 20.069L13.4056 20.0697L12 21.3287L10.5945 20.0698C10.5942 20.0696 10.594 20.0693 10.5937 20.0691C8.57789 18.2545 6.91501 16.6924 5.60339 15.382C4.29404 14.0738 3.26201 12.9086 2.5013 11.8851C1.74013 10.861 1.22488 9.94165 0.937167 9.12534C0.646123 8.29959 0.500773 7.45649 0.5 6.59378C0.50005 4.84022 1.08285 3.40148 2.24339 2.242C3.40401 1.08244 4.84435 0.5 6.6 0.5C7.56697 0.5 8.48465 0.703799 9.35819 1.11232C10.2325 1.52121 10.9851 2.09639 11.6192 2.84171L12 3.28933L12.3808 2.84171C13.0149 2.09639 13.7675 1.52121 14.6418 1.11232C15.5154 0.703799 16.433 0.5 17.4 0.5C19.1556 0.5 20.596 1.08244 21.7566 2.242C22.9172 3.40153 23.5 4.84035 23.5 6.594C23.5 7.4558 23.3551 8.29887 23.064 9.12548C22.7763 9.94238 22.2608 10.8615 21.499 11.8847C20.7373 12.9077 19.7051 14.0731 18.3964 15.3822ZM11.6666 19.1356L12.0001 19.4339L12.3335 19.1355C14.2571 17.4138 15.8438 15.9343 17.0919 14.6978C18.3398 13.4614 19.335 12.3769 20.072 11.4458C20.8084 10.5156 21.3403 9.66253 21.6451 8.88997C21.946 8.1272 22.1 7.36094 22.1 6.594C22.1 5.27127 21.6534 4.14216 20.7534 3.24302L20.4 3.59673L20.7534 3.24302C19.8535 2.3439 18.7235 1.89782 17.4 1.89782C16.3598 1.89782 15.3942 2.1924 14.5142 2.77446C13.7401 3.28641 13.1645 3.9336 12.8055 4.71526H11.1944C10.8353 3.93428 10.2597 3.28751 9.48583 2.77566C8.6059 2.19368 7.64047 1.8987 6.60043 1.89782H6.6C5.27646 1.89782 4.14654 2.3439 3.24661 3.24302C2.34665 4.14216 1.9 5.27127 1.9 6.594C1.9 7.36167 2.05394 8.12832 2.35489 8.89117C2.65969 9.66381 3.19169 10.5165 3.92809 11.446C4.665 12.3761 5.66013 13.4606 6.90799 14.6976C8.15616 15.935 9.74295 17.4147 11.6666 19.1356Z" stroke="white"/>
</svg>
