<svg width="48" height="48" viewBox="0 0 48 48" fill="none" xmlns="http://www.w3.org/2000/svg">
<g clip-path="url(#clip0_60_17)">
<mask id="mask0_60_17" style="mask-type:luminance" maskUnits="userSpaceOnUse" x="0" y="0" width="48" height="48">
<path d="M48 0H0V48H48V0Z" fill="white"/>
</mask>
<g mask="url(#mask0_60_17)">
<path d="M24 48C37.2341 48 48 37.2341 48 24C48.0058 20.8257 47.3782 17.6822 46.1531 14.7537C46.0244 14.438 45.7357 14.215 45.3978 14.1711C45.0593 14.1266 44.723 14.2669 44.5169 14.5387C44.3114 14.8109 44.2669 15.1727 44.4015 15.4862C45.5297 18.1827 46.1075 21.0773 46.1017 24C46.1017 36.187 36.187 46.1017 24 46.1017C11.813 46.1017 1.8983 36.187 1.8983 24C1.8983 11.813 11.813 1.89832 24 1.89832C26.4767 1.89514 28.9364 2.30934 31.2754 3.12396C31.5959 3.23783 31.9534 3.1711 32.2113 2.94917C32.4693 2.72777 32.589 2.38455 32.5249 2.05033C32.4608 1.71612 32.2225 1.44175 31.9004 1.33158C29.3602 0.44705 26.6896 -0.00316126 24 1.67074e-05C10.7659 1.67074e-05 0 10.7659 0 24C0 37.2341 10.7659 48 24 48Z" fill="#B09880"/>
<path d="M33.4094 6.17275C33.0387 5.80199 32.4375 5.80199 32.0667 6.17275C31.6965 6.54351 31.6965 7.14468 32.0667 7.51544L36.4836 11.9323C36.8485 12.2973 37.4375 12.3036 37.8104 11.9472L45.5969 4.51015C45.8459 4.27656 45.9502 3.92752 45.8708 3.59595C45.7908 3.26438 45.5392 3.00061 45.2113 2.9058C44.884 2.81099 44.5307 2.89945 44.286 3.13726L37.17 9.93387L33.4094 6.17275Z" fill="#B09880"/>
<path d="M24.0001 14.8193C26.2406 14.8219 28.0563 16.6376 28.0589 18.8781C28.0589 19.4024 28.4837 19.8272 29.0081 19.8272C29.5324 19.8272 29.9572 19.4024 29.9572 18.8781C29.9535 15.9559 27.8333 13.4665 24.9493 12.9973V11.1185C24.9493 10.5942 24.5245 10.1694 24.0001 10.1694C23.4757 10.1694 23.051 10.5942 23.051 11.1185V12.9973C19.9863 13.4935 17.8163 16.2594 18.0647 19.3542C18.3126 22.4485 20.8958 24.8336 24.0001 24.8346C26.2321 24.8346 28.0457 26.6371 28.0584 28.8696C28.0716 31.1016 26.2792 32.9252 24.0473 32.9512C24.0314 32.9501 24.016 32.9485 24.0001 32.9485C23.9842 32.9485 23.9689 32.9501 23.953 32.9512C21.731 32.9231 19.944 31.1154 19.9413 28.8934C19.9413 28.3691 19.5165 27.9443 18.9922 27.9443C18.4678 27.9443 18.043 28.3691 18.043 28.8934C18.0467 31.8156 20.1664 34.305 23.051 34.7743V36.8813C23.051 37.4056 23.4757 37.8304 24.0001 37.8304C24.5245 37.8304 24.9493 37.4056 24.9493 36.8813V34.7743C28.0144 34.2796 30.1855 31.5126 29.9371 28.4178C29.6892 25.323 27.105 22.9374 24.0001 22.9374C22.5446 22.9453 21.1956 22.1736 20.4657 20.9146C19.7353 19.6551 19.7353 18.1016 20.4657 16.8421C21.1956 15.5831 22.5446 14.8108 24.0001 14.8193Z" fill="#B09880"/>
</g>
</g>
<defs>
<clipPath id="clip0_60_17">
<rect width="48" height="48" fill="white"/>
</clipPath>
</defs>
</svg>
